<svg width="24" height="24" viewBox="0 0 24 24" fill="none" xmlns="http://www.w3.org/2000/svg">
<path fill-rule="evenodd" clip-rule="evenodd" d="M7.598 3.25C4.21938 3.25 1.75 5.99863 1.75 9.567C1.75 12.6451 3.96545 15.473 6.17078 17.552C8.41457 19.6673 10.8423 21.187 11.6184 21.6457L12 21.8712L12.3816 21.6457C13.1581 21.1868 15.5865 19.6656 17.8308 17.5373C20.0387 15.4436 22.25 12.5934 22.25 9.474C22.25 5.98998 19.7726 3.25 16.402 3.25C15.5062 3.25 14.7213 3.38373 13.9622 3.73099C13.2741 4.04581 12.6483 4.51752 12 5.14791C11.3517 4.51752 10.7259 4.04581 10.0378 3.73099C9.27874 3.38373 8.49383 3.25 7.598 3.25ZM3.25 9.567C3.25 6.70737 5.16262 4.75 7.598 4.75C8.33517 4.75 8.89626 4.85827 9.41373 5.09501C9.93938 5.3355 10.47 5.73151 11.1124 6.38009L12 7.27515L12.8879 6.37979C13.5303 5.73121 14.0606 5.3355 14.5863 5.09501C15.1037 4.85827 15.6648 4.75 16.402 4.75C18.8454 4.75 20.75 6.71602 20.75 9.474C20.75 11.9276 18.9643 14.3954 16.7987 16.4489C14.9591 18.1933 12.9759 19.5169 11.9999 20.1227C11.0236 19.5171 9.03979 18.1952 7.19972 16.4605C5.03155 14.4165 3.25 11.9729 3.25 9.567Z" fill="white"/>
</svg>
