<svg width="142" height="73" viewBox="0 0 142 73" fill="none" xmlns="http://www.w3.org/2000/svg">
<rect width="141.599" height="73" fill="black"/>
<path fill-rule="evenodd" clip-rule="evenodd" d="M130.649 10.95H92.0897V61.3822H97.4171V37.6384H129.009V32.8598H97.4171V15.7487H130.649V10.95ZM89.4875 55.2181L81.0843 47.5035C83.2207 44.4508 84.2236 40.686 84.2236 38.6599H80.4852C80.309 40.257 79.6055 43.5275 78.3965 45.0806L66.3686 34.0013C70.4309 32.3295 74.5459 29.6344 74.5459 24.7104C74.5459 21.1722 72.1394 16.9374 64.9837 16.9374C59.2224 16.9374 55.4427 20.1606 55.4427 24.8724C55.4427 28.4601 57.525 30.6753 60.3767 33.2867C52.741 36.3456 49.5091 39.3452 49.5091 44.6562C49.5091 51.2053 54.3921 56.0857 64.3413 56.0857C70.6068 56.0857 76.0292 53.8832 78.8436 50.4578L83.9457 55.2181H89.4875ZM49.5091 10.95H10.95V61.3822H16.2623V37.6384H47.8605V32.8598H32.0614H16.2623V15.7487H32.8857H49.5091V10.95ZM70.7994 24.8727C70.7994 22.3947 69.0671 20.1614 64.6808 20.1614C61.892 20.1614 59.208 21.8958 59.208 24.6591C59.208 26.2362 59.5931 27.6366 63.9626 31.9058C68.665 29.9107 70.7994 27.6366 70.7994 24.8727ZM62.6499 35.5904L76.2403 48.2045C72.6707 51.8407 69.1421 52.8617 64.5299 52.8617C56.8774 52.8617 53.5306 48.969 53.5306 44.9086C53.5306 40.6642 56.4516 37.8611 62.6499 35.5904Z" fill="white"/>
</svg>
