<svg width="121" height="36" viewBox="0 0 121 36" fill="none" xmlns="http://www.w3.org/2000/svg">
<g clip-path="url(#clip0_187_5857)">
<path fill-rule="evenodd" clip-rule="evenodd" d="M84.6467 1C87.1847 1 89.3823 1.31093 91.1467 1.77689V7.18231C89.4133 5.41174 87.3705 4.29326 84.6777 4.29326C79.7562 4.29326 76.4756 7.74156 76.4756 12.3399C76.4756 16.9377 79.7562 20.386 84.6777 20.386C87.3705 20.386 89.4133 19.268 91.1467 17.497V22.9028C89.3823 23.3688 87.1847 23.7104 84.6467 23.7104C76.1353 23.7104 69.9756 19.4541 69.9756 12.3399C69.9756 5.22518 76.1353 1 84.6467 1ZM60.4734 9.82348C64.7138 10.4134 68.2422 11.905 68.2422 16.5339C68.2422 21.9709 63.1043 23.7104 57.5637 23.6797C53.695 23.6482 50.414 23.2755 47.9995 22.3125V17.4348C51.4354 19.6717 54.9638 20.386 57.5637 20.386C60.2565 20.386 62.733 19.7339 62.733 17.6835C62.733 15.6331 60.4424 15.1356 55.7378 14.4214C51.6828 13.7999 47.9995 12.06 47.9685 8.05248C47.9376 2.64663 53.0449 1 57.935 1C61.0925 1 64.1566 1.37269 66.973 2.30504V7.55543C64.6209 5.47393 61.1235 4.29326 57.6876 4.29326C55.366 4.29326 53.1684 5.03906 53.1684 6.77854C53.1684 8.95331 56.4184 9.26424 60.4734 9.82348ZM37.1356 19.9205C39.6426 19.9205 43.8211 19.3301 45.4616 17.8696V23.2133H27.6644C28.5309 22.1881 28.6857 21.5045 28.6857 19.423V5.25628C28.6857 3.17478 28.5309 2.49117 27.6644 1.46596H44.5331V6.80963C42.8926 5.34956 38.7141 4.75922 36.2071 4.75922H34.2259V10.5378H35.681C37.1046 10.5378 39.3023 10.4756 40.7569 9.94743V14.2348C39.3023 13.7066 37.1046 13.6445 35.681 13.6445H34.2259V19.9205H37.1356ZM0.983643 1.46596H25.4048V6.80963C23.6713 5.34956 19.9881 4.75922 16.0574 4.75922V19.3301C16.0574 21.5045 16.2429 22.0948 17.0788 23.2133H9.30959C10.1455 22.0948 10.331 21.5045 10.331 19.3301V4.75922C6.40033 4.75922 2.71707 5.34956 0.983643 6.80963V1.46596Z" fill="#E81C2D"/>
<path fill-rule="evenodd" clip-rule="evenodd" d="M106.481 20.3863C102.054 20.3863 99.176 16.7203 99.176 12.3397C99.176 7.92836 102.054 4.29308 106.481 4.29308C110.906 4.29308 113.785 7.92836 113.785 12.3397C113.785 16.7203 110.906 20.3863 106.481 20.3863ZM106.481 1.00024C97.69 1.00024 92.676 6.12626 92.676 12.3397C92.676 18.5224 97.69 23.6795 106.481 23.6795C115.271 23.6795 120.285 18.5224 120.285 12.3397C120.285 6.12626 115.271 1.00024 106.481 1.00024Z" fill="#E81C2D"/>
<mask id="mask0_187_5857" style="mask-type:luminance" maskUnits="userSpaceOnUse" x="96" y="29" width="25" height="7">
<path fill-rule="evenodd" clip-rule="evenodd" d="M96.1187 35.1444H120.092V29.1216H96.1187V35.1444H96.1187Z" fill="white"/>
</mask>
<g mask="url(#mask0_187_5857)">
<path fill-rule="evenodd" clip-rule="evenodd" d="M105.27 29.1216H120.017C120.034 29.1216 120.048 29.125 120.058 29.131L120.061 29.1327C120.065 29.1348 120.068 29.1373 120.071 29.1403C120.1 29.1684 120.102 29.2255 120.058 29.2668C120.046 29.2779 120.035 29.2847 120.022 29.2911L119.996 29.3035C118.282 30.0872 115.988 32.477 115.988 32.477C114.272 34.113 112.986 35.1446 110.243 35.1446H96.1827C96.142 35.1446 96.1208 35.1058 96.1187 35.0654C96.1187 35.0645 96.1187 35.0667 96.1187 35.0654C96.1187 35.0402 96.1301 35.013 96.1484 34.9981C96.1598 34.9883 96.1768 34.9768 96.1929 34.9666C97.7358 34.1015 100.04 31.7031 100.04 31.7031C100.984 30.5842 102.869 29.1216 105.27 29.1216Z" fill="#00539F"/>
</g>
<mask id="mask1_187_5857" style="mask-type:luminance" maskUnits="userSpaceOnUse" x="72" y="29" width="25" height="7">
<path fill-rule="evenodd" clip-rule="evenodd" d="M72.0889 35.1444H96.0622V29.1216H72.0889V35.1444Z" fill="white"/>
</mask>
<g mask="url(#mask1_187_5857)">
<path fill-rule="evenodd" clip-rule="evenodd" d="M81.2406 29.1216H95.9876C96.0042 29.1216 96.0178 29.125 96.0279 29.131L96.0313 29.1327C96.0347 29.1348 96.0381 29.1373 96.0411 29.1403C96.0699 29.1684 96.0725 29.2255 96.0284 29.2668C96.0161 29.2779 96.005 29.2847 95.9923 29.2911L95.966 29.3035C94.2525 30.0872 91.9581 32.477 91.9581 32.477C90.2425 34.113 88.9568 35.1446 86.2134 35.1446H72.1529C72.1122 35.1446 72.091 35.1058 72.0889 35.0654C72.0889 35.0645 72.0889 35.0667 72.0889 35.0654C72.0889 35.0402 72.1003 35.013 72.1186 34.9981C72.13 34.9883 72.147 34.9768 72.1631 34.9666C73.706 34.1015 76.0106 31.7031 76.0106 31.7031C76.9543 30.5842 78.8397 29.1216 81.2406 29.1216Z" fill="#00539F"/>
</g>
<mask id="mask2_187_5857" style="mask-type:luminance" maskUnits="userSpaceOnUse" x="48" y="29" width="25" height="7">
<path fill-rule="evenodd" clip-rule="evenodd" d="M48.0593 35.1444H72.0327V29.1216H48.0593L48.0593 35.1444H48.0593Z" fill="white"/>
</mask>
<g mask="url(#mask2_187_5857)">
<path fill-rule="evenodd" clip-rule="evenodd" d="M57.211 29.1216H71.9581C71.9746 29.1216 71.9882 29.125 71.9984 29.131L72.0018 29.1327C72.0052 29.1348 72.0086 29.1373 72.0115 29.1403C72.0404 29.1684 72.0429 29.2255 71.9988 29.2668C71.9865 29.2779 71.9755 29.2847 71.9627 29.2911L71.9364 29.3035C70.223 30.0872 67.9286 32.477 67.9286 32.477C66.213 34.113 64.9272 35.1446 62.1839 35.1446H48.1234C48.0827 35.1446 48.0614 35.1058 48.0593 35.0654C48.0593 35.0645 48.0593 35.0667 48.0593 35.0654C48.0593 35.0402 48.0708 35.013 48.089 34.9981C48.1005 34.9883 48.1179 34.9768 48.1336 34.9666C49.6765 34.1015 51.9815 31.7031 51.9815 31.7031C52.9248 30.5842 54.8101 29.1216 57.211 29.1216Z" fill="#00539F"/>
</g>
<mask id="mask3_187_5857" style="mask-type:luminance" maskUnits="userSpaceOnUse" x="24" y="29" width="25" height="7">
<path fill-rule="evenodd" clip-rule="evenodd" d="M24.0298 35.1444H48.0031V29.1216H24.0298L24.0298 35.1444H24.0298Z" fill="white"/>
</mask>
<g mask="url(#mask3_187_5857)">
<path fill-rule="evenodd" clip-rule="evenodd" d="M33.1815 29.1216H47.9285C47.9451 29.1216 47.9587 29.125 47.9689 29.131L47.9722 29.1327C47.9756 29.1348 47.979 29.1373 47.982 29.1403C48.0109 29.1684 48.0134 29.2255 47.9693 29.2668C47.957 29.2779 47.9459 29.2847 47.9332 29.2911L47.9069 29.3035C46.1934 30.0872 43.899 32.477 43.899 32.477C42.1834 34.113 40.8972 35.1446 38.1543 35.1446H24.0939C24.0531 35.1446 24.0319 35.1058 24.0298 35.0654C24.0298 35.0645 24.0298 35.0667 24.0298 35.0654C24.0298 35.0402 24.0412 35.013 24.0595 34.9981C24.0709 34.9883 24.0879 34.9768 24.104 34.9666C25.6469 34.1015 27.9515 31.7031 27.9515 31.7031C28.8953 30.5842 30.7806 29.1216 33.1815 29.1216Z" fill="#00539F"/>
</g>
<mask id="mask4_187_5857" style="mask-type:luminance" maskUnits="userSpaceOnUse" x="0" y="29" width="24" height="7">
<path fill-rule="evenodd" clip-rule="evenodd" d="M0 35.1444H23.9734V29.1216H0L0 35.1444H0Z" fill="white"/>
</mask>
<g mask="url(#mask4_187_5857)">
<path fill-rule="evenodd" clip-rule="evenodd" d="M9.15171 29.1216H23.8988C23.9153 29.1216 23.9289 29.125 23.9391 29.131L23.9425 29.1327C23.9459 29.1348 23.9493 29.1373 23.9522 29.1403C23.9811 29.1684 23.9836 29.2255 23.9395 29.2668C23.9272 29.2779 23.9162 29.2847 23.9034 29.2911L23.8771 29.3035C22.1636 30.0872 19.8692 32.477 19.8692 32.477C18.1536 34.113 16.8675 35.1446 14.1245 35.1446H0.0640751C0.0233386 35.1446 0.00212169 35.1058 0 35.0654C0 35.0645 0 35.0667 0 35.0654C0 35.0402 0.0114571 35.013 0.0297037 34.9981C0.0411609 34.9883 0.0581344 34.9768 0.0742593 34.9666C1.61715 34.1015 3.92174 31.7031 3.92174 31.7031C4.86547 30.5842 6.7508 29.1216 9.15171 29.1216Z" fill="#00539F"/>
</g>
</g>
<defs>
<clipPath id="clip0_187_5857">
<rect width="121" height="36" fill="white"/>
</clipPath>
</defs>
</svg>
